<?xml version="1.0" encoding="UTF-8"?>
<svg version="1.1" xmlns="http://www.w3.org/2000/svg" width="512" height="512">
<path d="M0 0 C1.97195827 -0.00394574 3.94390382 -0.0131442 5.91584396 -0.0224762 C48.54363342 -0.15703077 88.85921933 6.77447825 124.33335495 31.43345642 C125.36589401 32.14630798 126.39843307 32.85915955 127.4622612 33.59361267 C164.31879169 60.48642528 186.49289254 101.03746225 194.33335495 145.43345642 C194.52026901 146.45052673 194.70718307 147.46759705 194.8997612 148.51548767 C197.6698324 173.54595085 194.59238808 197.54531144 185.64585495 220.93345642 C184.25155018 224.42123235 184.25155018 224.42123235 183.4700737 228.14439392 C175.62654902 260.04603472 146.22681528 286.53377451 119.35679245 302.91001892 C115.41949012 305.22277678 111.39220719 307.34345732 107.33335495 309.43345642 C106.58876022 309.82597595 105.8441655 310.21849548 105.07700729 310.62290955 C71.8111625 328.01735584 32.34498222 338.43540577 -5.27602005 338.63658142 C-6.15773376 338.64345978 -7.03944748 338.65033813 -7.94787979 338.65742493 C-10.77084423 338.67447367 -13.5936319 338.680876 -16.41664505 338.68345642 C-17.85712708 338.68596405 -17.85712708 338.68596405 -19.32670975 338.68852234 C-36.26173923 338.69029269 -52.21010391 337.59399274 -68.66664505 333.43345642 C-68.63700668 334.29489258 -68.60736832 335.15632874 -68.57683182 336.04386902 C-67.77998399 359.88682125 -67.50689479 383.7063186 -67.53627396 407.56187439 C-67.54198724 412.25584578 -67.53856364 416.94976066 -67.53283691 421.64373016 C-67.51459453 439.2508568 -67.56609502 456.84920773 -68.11195755 474.44908142 C-68.15069992 475.71685425 -68.18944229 476.98462708 -68.22935867 478.29081726 C-68.34743961 481.67365642 -68.49900951 485.05275266 -68.66664505 488.43345642 C-68.72462265 490.01845947 -68.72462265 490.01845947 -68.78377151 491.63548279 C-68.86670456 493.11280884 -68.86670456 493.11280884 -68.95131302 494.61997986 C-69.01341461 495.90989838 -69.01341461 495.90989838 -69.07677078 497.22587585 C-69.66664505 499.43345642 -69.66664505 499.43345642 -71.5238533 501.23429871 C-73.66664505 502.43345642 -73.66664505 502.43345642 -76.66664505 502.43345642 C-76.99664505 504.08345642 -77.32664505 505.73345642 -77.66664505 507.43345642 C-82.71661992 509.03239523 -87.53421274 509.88410851 -92.82289505 510.28501892 C-93.61817108 510.34900375 -94.41344711 510.41298859 -95.23282242 510.47891235 C-97.8766796 510.68436427 -100.52126081 510.87374374 -103.16664505 511.05845642 C-104.08460861 511.12382599 -105.00257217 511.18919556 -105.94835281 511.25654602 C-122.87144215 512.42619633 -139.76917324 512.73418982 -156.72914505 512.74595642 C-158.47373001 512.75106232 -158.47373001 512.75106232 -160.25355911 512.75627136 C-177.50188561 512.78524221 -194.30347842 512.05850164 -211.22914505 508.49595642 C-212.02643021 508.33933533 -212.82371536 508.18271423 -213.64516068 508.02134705 C-228.01314301 505.08695847 -228.01314301 505.08695847 -231.66664505 501.43345642 C-232.65087726 496.44752283 -232.8086599 491.53049666 -232.79008865 486.46621704 C-232.79122056 485.68644003 -232.79235246 484.90666302 -232.79351866 484.1032564 C-232.79598308 481.47851787 -232.79115956 478.85384516 -232.78627396 476.22911072 C-232.78626458 474.30997782 -232.78663661 472.39084488 -232.78735352 470.47171211 C-232.78774715 465.14152946 -232.7811859 459.81137517 -232.77302885 454.4811995 C-232.76816091 451.03717631 -232.7649724 447.59315543 -232.76230621 444.14912987 C-232.74809909 426.31539552 -232.71402578 408.48173109 -232.67186856 390.64804542 C-232.6665998 388.41427204 -232.66140939 386.18049848 -232.65622902 383.94672489 C-232.55909354 342.29217952 -232.40852779 300.63804978 -232.19519043 258.9839344 C-232.17728755 255.47207304 -232.15947752 251.96021122 -232.14174271 248.448349 C-232.13733591 247.57743932 -232.13292912 246.70652964 -232.12838879 245.80922876 C-232.0569256 231.56885258 -232.00749355 217.32847875 -231.96595101 203.08798734 C-231.92196152 188.16241884 -231.85560445 173.23706591 -231.76924193 158.31168193 C-231.72201138 150.05129748 -231.68365441 141.79112034 -231.67141724 133.53060341 C-231.60767589 94.39484207 -229.95571159 56.27748341 -224.66664505 17.43345642 C-225.32664505 17.43345642 -225.98664505 17.43345642 -226.66664505 17.43345642 C-226.66664505 16.77345642 -226.66664505 16.11345642 -226.66664505 15.43345642 C-227.98664505 15.10345642 -229.30664505 14.77345642 -230.66664505 14.43345642 C-230.70918861 12.43390896 -230.70745288 10.43304006 -230.66664505 8.43345642 C-229.66664505 7.43345642 -229.66664505 7.43345642 -227.22914505 7.24595642 C-224.66664505 7.43345642 -224.66664505 7.43345642 -222.66664505 9.43345642 C-220.75822305 9.64796492 -220.75822305 9.64796492 -218.55189896 9.47373962 C-217.6851152 9.4316185 -216.81833145 9.38949738 -215.92528152 9.34609985 C-214.96594711 9.28856033 -214.0066127 9.23102081 -213.01820755 9.17173767 C-211.99917343 9.11883072 -210.98013931 9.06592377 -209.93022537 9.01141357 C-206.50830179 8.8302191 -203.0875567 8.63279858 -199.66664505 8.43345642 C-197.28612736 8.29954254 -194.90559314 8.16592212 -192.52504349 8.03257751 C-187.97230613 7.77503606 -183.41981976 7.51361187 -178.86754513 7.2480526 C-56.08027885 0.08580718 -56.08027885 0.08580718 0 0 Z M-125.38539505 16.96470642 C-126.10073914 17.03224939 -126.81608322 17.09979237 -127.5531044 17.1693821 C-134.64831992 17.84036969 -141.74196228 18.52388927 -148.83203602 19.24730778 C-172.35997283 21.63780579 -195.17096124 22.37369842 -218.66664505 19.43345642 C-218.52227005 20.53560486 -218.37789505 21.6377533 -218.22914505 22.77330017 C-218.04110989 24.30578669 -217.8536416 25.83834283 -217.66664505 27.37095642 C-217.57125443 28.08703064 -217.4758638 28.80310486 -217.37758255 29.5408783 C-215.84638871 42.39196943 -216.61101909 55.43932269 -217.50872411 68.30898639 C-218.86051849 88.14700022 -218.94335013 107.94458791 -218.89877629 127.820207 C-218.88995864 132.77737442 -218.89307457 137.73453835 -218.89458084 142.69171143 C-218.89561839 151.2356716 -218.88946194 159.77960072 -218.87810516 168.32355309 C-218.86169703 180.67594532 -218.8566267 193.02832288 -218.85412918 205.38072482 C-218.84977578 225.4324088 -218.83653139 245.48407629 -218.81752396 265.53575134 C-218.79910364 284.98855 -218.78497744 304.44134414 -218.77650833 323.89414978 C-218.77598288 325.09767466 -218.77545744 326.30119955 -218.77491607 327.54119488 C-218.77230558 333.58025557 -218.76977826 339.6193163 -218.76729226 345.65837705 C-218.74663328 395.58341488 -218.71147289 445.50843484 -218.66664505 495.43345642 C-217.49648897 495.47064175 -217.49648897 495.47064175 -216.30269337 495.5085783 C-212.69481282 495.62508148 -209.0871091 495.7464105 -205.47938919 495.86778259 C-204.25287895 495.90667351 -203.02636871 495.94556442 -201.7626915 495.98563385 C-193.70355147 496.26099175 -185.6942866 496.76833917 -177.6627388 497.48423767 C-161.80161365 498.77415512 -145.96394057 498.69896819 -130.06282425 498.6290741 C-126.91983817 498.61814126 -123.77689484 498.6186094 -120.63389301 498.61921215 C-117.55810736 498.61893857 -114.48234888 498.61343097 -111.40657234 498.60621071 C-109.96233638 498.60307594 -108.51809743 498.60106912 -107.07385826 498.600317 C-98.5434152 498.59097616 -90.1582386 498.25998417 -81.66664505 497.43345642 C-81.66664505 491.16345642 -81.66664505 484.89345642 -81.66664505 478.43345642 C-83.79939896 478.5164801 -83.79939896 478.5164801 -85.9752388 478.60118103 C-115.74608653 479.74744279 -145.50221264 480.63225219 -175.29164505 481.05845642 C-176.0072963 481.0687022 -176.72294754 481.07894798 -177.46028519 481.08950424 C-186.19561848 481.21370146 -194.93105815 481.32848872 -203.66664505 481.43345642 C-203.66664505 480.77345642 -203.66664505 480.11345642 -203.66664505 479.43345642 C-192.33363103 478.80262351 -181.00028605 478.17792225 -169.66664505 477.55845642 C-168.82881737 477.51265945 -167.99098969 477.46686249 -167.12777328 477.41967773 C-138.6466532 475.86487373 -110.17001115 474.53681253 -81.66664505 473.43345642 C-81.66664505 460.56345642 -81.66664505 447.69345642 -81.66664505 434.43345642 C-93.28034652 435.1895807 -93.28034652 435.1895807 -104.8658638 436.15220642 C-106.26200113 436.28085813 -107.65816079 436.40926779 -109.05434036 436.53746033 C-109.75611404 436.60233643 -110.45788773 436.66721252 -111.18092728 436.73405457 C-136.99476425 439.10258249 -162.76133961 439.81314921 -188.66664505 440.43345642 C-188.33664505 439.77345642 -188.00664505 439.11345642 -187.66664505 438.43345642 C-184.52119425 438.08486664 -181.44878387 437.86610625 -178.29164505 437.72251892 C-176.2726808 437.61311168 -174.25371933 437.50365301 -172.23476028 437.39414978 C-171.16378098 437.33967682 -170.09280167 437.28520386 -168.98936844 437.2290802 C-151.32283332 436.32189334 -133.70600065 435.13788184 -116.10414505 433.37095642 C-115.27858109 433.28895996 -114.45301712 433.2069635 -113.60243607 433.1224823 C-102.9356828 432.05650247 -92.29753998 430.8104399 -81.66664505 429.43345642 C-80.82888985 423.31386671 -80.82888985 423.31386671 -80.5689888 417.15220642 C-80.57221146 416.45611267 -80.57543411 415.76001892 -80.57875443 415.04283142 C-80.58713333 414.34673767 -80.59551224 413.65064392 -80.60414505 412.93345642 C-80.61091263 411.84290955 -80.61091263 411.84290955 -80.61781693 410.73033142 C-80.62943312 408.96466961 -80.64736064 407.19905113 -80.66664505 405.43345642 C-81.72496536 405.56622986 -82.78328568 405.6990033 -83.8736763 405.83580017 C-93.75430868 407.00800347 -103.5975249 407.70017816 -113.54164505 408.05845642 C-114.64484085 408.09833679 -115.74803665 408.13821716 -116.88466263 408.17930603 C-124.48031985 408.42454647 -132.06742507 408.4755099 -139.66664505 408.43345642 C-139.66664505 407.44345642 -139.66664505 406.45345642 -139.66664505 405.43345642 C-138.91415482 405.45593445 -138.16166458 405.47841248 -137.38637161 405.50157166 C-126.9604263 405.66748762 -116.71729153 404.78413207 -106.34877396 403.77940369 C-103.38122345 403.49253223 -100.41275428 403.21720573 -97.4439888 402.94322205 C-95.55460264 402.76485419 -93.66527717 402.58584215 -91.77602005 402.40611267 C-90.88968887 402.32377884 -90.0033577 402.24144501 -89.090168 402.15661621 C-84.74222713 401.82828623 -84.74222713 401.82828623 -80.66664505 400.43345642 C-80.20987141 397.94188977 -80.20987141 397.94188977 -80.0768013 394.89048767 C-80.00348587 393.71180115 -79.93017044 392.53311462 -79.85463333 391.31871033 C-79.52894855 384.58760954 -79.29718377 377.85682583 -79.10414505 371.12095642 C-79.0608009 369.68670327 -79.01718254 368.25245838 -78.97328568 366.81822205 C-78.86792448 363.35672256 -78.76622693 359.89512758 -78.66664505 356.43345642 C-79.25490067 356.49076935 -79.84315628 356.54808228 -80.44923782 356.60713196 C-96.6975393 358.15683336 -112.85096883 358.82859072 -129.16664505 359.05845642 C-131.46613645 359.09679211 -133.76561589 359.13585173 -136.06508255 359.17564392 C-141.59882771 359.2698754 -147.13264969 359.35536901 -152.66664505 359.43345642 C-152.66664505 358.44345642 -152.66664505 357.45345642 -152.66664505 356.43345642 C-151.47337601 356.45665955 -150.28010696 356.47986267 -149.05067825 356.50376892 C-133.9043782 356.70114823 -118.94305038 355.65857563 -103.85414505 354.43345642 C-101.39652141 354.24000153 -98.93883923 354.04728888 -96.48109818 353.85533142 C-90.54223979 353.38989748 -84.60425617 352.91452991 -78.66664505 352.43345642 C-78.33664505 347.48345642 -78.00664505 342.53345642 -77.66664505 337.43345642 C-85.42217657 337.40859404 -93.17768449 337.3905199 -100.93324661 337.37852478 C-103.56736531 337.37352002 -106.20148127 337.36671419 -108.83559036 337.35801697 C-112.63865718 337.34578151 -116.44168702 337.34018938 -120.24477005 337.33580017 C-121.40776627 337.33063889 -122.57076248 337.3254776 -123.76900101 337.32015991 C-130.24087207 337.31972356 -136.60709589 337.58528353 -143.04964066 338.21203613 C-146.60429745 338.51278959 -150.10162538 338.50201449 -153.66664505 338.43345642 C-153.66664505 337.44345642 -153.66664505 336.45345642 -153.66664505 335.43345642 C-128.36920439 333.492498 -103.05051765 332.09847863 -77.66664505 332.43345642 C-77.99664505 330.12345642 -78.32664505 327.81345642 -78.66664505 325.43345642 C-77.48675003 325.38858093 -76.30685501 325.34370544 -75.0912056 325.29747009 C-26.52244288 323.42105112 21.56737553 320.88654655 68.33335495 306.43345642 C68.33335495 306.10345642 68.33335495 305.77345642 68.33335495 305.43345642 C-4.59664505 305.43345642 -77.52664505 305.43345642 -152.66664505 305.43345642 C-152.66664505 304.44345642 -152.66664505 303.45345642 -152.66664505 302.43345642 C-151.91888809 302.43574753 -151.17113113 302.43803864 -150.40071487 302.44039917 C-132.32776769 302.48782595 -114.26692608 302.35123151 -96.19588089 302.06361389 C-70.67838393 301.65872962 -45.16144969 301.39237853 -19.64123917 301.24119759 C-15.20784697 301.2148896 -10.77446505 301.18706694 -6.34108353 301.1590271 C-3.36854969 301.14034184 -0.39601541 301.12172676 2.57651901 301.10313416 C3.3141995 301.0985069 4.05188 301.09387964 4.81191444 301.08911216 C13.74136415 301.03336607 22.67080372 300.9843711 31.60034072 300.94496334 C37.2887119 300.91939468 42.97701809 300.8868759 48.66532242 300.84929383 C51.99871258 300.82757033 55.33197392 300.8103831 58.66542816 300.79966736 C62.33235827 300.78751763 65.99902742 300.76336861 69.66587448 300.73643494 C71.27197145 300.73554792 71.27197145 300.73554792 72.91051483 300.73464298 C81.90522195 300.64705143 89.23530914 298.80751859 97.33335495 294.93345642 C98.05450485 294.59177429 98.77565475 294.25009216 99.51865768 293.89805603 C107.4775483 290.02707427 115.05219318 285.46069194 122.33335495 280.43345642 C122.33335495 280.10345642 122.33335495 279.77345642 122.33335495 279.43345642 C114.64102396 278.50831356 106.9649449 278.16760133 99.22418594 277.92426109 C96.95611042 277.85267133 94.68822136 277.77659932 92.42033005 277.69940186 C89.08929668 277.58603811 85.75823016 277.47374458 82.42713547 277.36219788 C47.73597772 276.19384295 13.06470312 274.69835316 -21.60414505 272.99595642 C-22.68690216 272.94282917 -23.76965927 272.88970192 -24.8852272 272.83496475 C-65.81875177 270.82368664 -106.74532801 268.67898822 -147.66664505 266.43345642 C-147.99664505 265.44345642 -148.32664505 264.45345642 -148.66664505 263.43345642 C-147.80237396 263.58763031 -146.93810287 263.7418042 -146.04764175 263.90065002 C-139.92840696 264.7676402 -133.73981009 264.78071254 -127.57069778 264.95835876 C-126.13645243 265.00255198 -124.70221803 265.04710227 -123.26799393 265.09197998 C-120.17550685 265.1880336 -117.08295936 265.28167127 -113.99034309 265.37347031 C-109.01788982 265.52120687 -104.04563825 265.67511181 -99.07339859 265.82984924 C-86.66390349 266.21506461 -74.25414862 266.59167622 -61.84437943 266.96794128 C-49.76284731 267.33440098 -37.6814379 267.70460383 -25.6002388 268.08189392 C-24.31938447 268.12184487 -24.31938447 268.12184487 -23.0126543 268.1626029 C119.41745027 272.61478839 119.41745027 272.61478839 127.54111862 275.11216736 C129.3847728 275.63750986 129.3847728 275.63750986 131.02158737 274.4964447 C131.57177536 274.00386169 132.12196335 273.51127869 132.6888237 273.00376892 C133.30676804 272.46026794 133.92471237 271.91676697 134.56138229 271.35679626 C135.20800827 270.76334412 135.85463425 270.16989197 136.52085495 269.55845642 C137.19068405 268.95855896 137.86051315 268.3586615 138.55064011 267.74058533 C149.64957074 257.73036352 159.14068497 246.98307935 167.89585495 234.87095642 C168.33792282 234.26292175 168.77999069 233.65488708 169.23545456 233.02842712 C171.58007267 230.02767595 171.58007267 230.02767595 172.33335495 226.43345642 C171.50046951 226.46407669 170.66758408 226.49469696 169.80945969 226.52624512 C144.66858356 227.3974677 119.54047521 227.50699357 94.38804245 227.46080017 C92.71702453 227.45806186 91.04600657 227.45535225 89.37498856 227.45267105 C73.77709263 227.42679949 58.17923935 227.38711031 42.58140182 227.33750916 C34.8006871 227.31285173 27.0199889 227.29556744 19.23924077 227.28594977 C14.37194041 227.27949482 9.50478327 227.26413863 4.637532 227.24163234 C1.61147151 227.22978473 -1.41455593 227.22652861 -4.44063759 227.22553444 C-6.47584941 227.22241814 -8.51103858 227.20931211 -10.54620743 227.19572449 C-18.25849874 227.20377915 -25.61535455 227.80741254 -33.21959114 228.98087406 C-39.07043948 229.7490636 -44.90048775 229.68362831 -50.79164505 229.62095642 C-51.95051224 229.62031189 -53.10937943 229.61966736 -54.3033638 229.6190033 C-60.11577921 229.58977886 -65.91767623 229.43347797 -71.72133255 229.10923767 C-72.74468704 229.05292175 -73.76804153 228.99660583 -74.82240677 228.93858337 C-78.05925836 228.36372965 -80.05497682 227.41833608 -82.66664505 225.43345642 C-83.16664505 222.49595642 -83.16664505 222.49595642 -82.66664505 219.43345642 C-82.16664993 218.83339783 -81.66665482 218.23333923 -81.15150833 217.61509705 C-79.19265366 214.7370429 -79.33661386 212.92487761 -79.40883255 209.46470642 C-79.42389847 208.26869812 -79.43896439 207.07268982 -79.45448685 205.84043884 C-79.48324905 204.55113464 -79.51201126 203.26183044 -79.54164505 201.93345642 C-79.5750322 199.19002815 -79.59532689 196.44653856 -79.6158638 193.70298767 C-79.6254789 192.65828056 -79.6254789 192.65828056 -79.63528824 191.59246826 C-79.78885878 172.85699811 -78.56758047 154.24877968 -76.68300247 135.62168884 C-75.09229971 123.89816502 -75.09229971 123.89816502 -76.26210403 112.26304626 C-76.39560257 111.65928162 -76.5291011 111.05551697 -76.66664505 110.43345642 C-75.29164505 108.87095642 -75.29164505 108.87095642 -73.66664505 107.43345642 C-73.33664505 106.44345642 -73.00664505 105.45345642 -72.66664505 104.43345642 C-71.77977005 104.51595642 -70.89289505 104.59845642 -69.97914505 104.68345642 C-65.029293 104.71369992 -60.58875068 102.97747034 -55.94789505 101.40611267 C-34.44871281 95.03314079 -9.8029141 100.19653819 9.45835495 110.55845642 C22.45351124 118.53041905 32.14492994 130.6532963 36.33335495 145.37095642 C39.74786341 163.46341681 38.58604502 183.32445645 29.33335495 199.43345642 C29.00335495 200.09345642 28.67335495 200.75345642 28.33335495 201.43345642 C29.68582879 201.63280064 31.04050582 201.8172042 32.39585495 201.99595642 C33.14995651 202.10037048 33.90405807 202.20478455 34.6810112 202.31236267 C37.43800312 202.52399257 37.43800312 202.52399257 40.55405807 201.94932556 C44.24225312 201.4458917 47.7348057 201.30413397 51.4544487 201.30064392 C52.11687073 201.29968719 52.77929276 201.29873047 53.46178818 201.29774475 C54.85932638 201.29706828 56.25686782 201.29888514 57.65439987 201.30308533 C59.73431086 201.30836368 61.81399814 201.30316247 63.89390182 201.29673767 C71.35014549 201.2929228 78.7398871 201.52915612 86.18215561 202.04327393 C94.47489271 202.60474005 102.77520722 202.80030424 111.08335495 202.99595642 C112.37316772 203.02772476 112.37316772 203.02772476 113.68903732 203.06013489 C134.90229669 203.57293811 156.11547341 203.53282686 177.33335495 203.43345642 C179.67965389 187.78448045 179.54429755 172.22818937 179.33335495 156.43345642 C178.5534671 156.42536957 177.77357925 156.41728271 176.97005844 156.40895081 C166.90352184 156.30285353 156.8371523 156.18517884 146.77085495 156.05845642 C145.9627739 156.04829121 145.15469284 156.03812599 144.32212448 156.02765274 C113.63556431 155.63690893 82.99528377 154.75000299 52.33335495 153.43345642 C52.00335495 152.77345642 51.67335495 152.11345642 51.33335495 151.43345642 C93.57335495 151.43345642 135.81335495 151.43345642 179.33335495 151.43345642 C177.16976467 136.87092565 177.16976467 136.87092565 174.33335495 122.43345642 C173.61294525 122.43836594 172.89253555 122.44327545 172.15029526 122.44833374 C154.38761782 122.55195949 136.67963054 122.28219382 118.92686081 121.63389587 C115.10875398 121.4946029 111.29044073 121.36286394 107.47202682 121.23228455 C94.41626937 120.77764101 81.37226424 120.24219752 68.33335495 119.43345642 C68.33335495 118.77345642 68.33335495 118.11345642 68.33335495 117.43345642 C102.65335495 117.43345642 136.97335495 117.43345642 172.33335495 117.43345642 C169.75488452 108.7551232 169.75488452 108.7551232 166.14585495 100.80845642 C165.61605026 99.7849408 165.08624557 98.76142517 164.5403862 97.70689392 C163.94290573 96.58154236 163.94290573 96.58154236 163.33335495 95.43345642 C162.37585342 95.43567703 161.4183519 95.43789764 160.43183517 95.44018555 C148.19068489 95.46764034 135.94953118 95.48528728 123.70835495 95.49595642 C122.73313637 95.49681244 121.75791779 95.49766846 120.75314713 95.49855042 C88.26751971 95.52374355 55.80969951 95.2633535 23.33335495 94.43345642 C23.00335495 93.44345642 22.67335495 92.45345642 22.33335495 91.43345642 C56.02472101 90.64988782 89.69624869 90.33936921 123.39585495 90.37095642 C124.3156451 90.37181244 125.23543526 90.37266846 126.18309784 90.37355042 C137.56653699 90.38493253 148.94994586 90.40499645 160.33335495 90.43345642 C159.56218494 89.01229468 158.78686837 87.59338261 158.00986862 86.17539978 C157.57857147 85.38499802 157.14727432 84.59459625 156.70290756 83.78024292 C154.65293745 80.26753217 152.20520731 77.14726783 149.64585495 73.99595642 C149.16052292 73.38558533 148.67519089 72.77521423 148.17515182 72.14634705 C145.06093874 67.55250187 145.06093874 67.55250187 140.50134563 65.20113659 C139.76149205 65.20949693 139.02163847 65.21785727 138.25936508 65.22647095 C137.42343606 65.23116551 136.58750704 65.23586008 135.72624683 65.24069691 C134.81985179 65.2562094 133.91345675 65.2717219 132.97959518 65.28770447 C132.03757216 65.29622027 131.09554914 65.30473608 130.12497997 65.31350994 C127.19420172 65.34300336 124.26390767 65.38694733 121.33335495 65.43345642 C119.63805646 65.4553716 117.94275425 65.47700238 116.24744797 65.49830627 C111.16240319 65.56823157 106.07802166 65.66449315 100.9935112 65.76548767 C100.07207888 65.78339293 99.15064655 65.80129818 98.20129204 65.81974602 C92.28259693 65.93517627 86.36404354 66.05657711 80.4455452 66.18167114 C77.37885005 66.24631487 74.3121278 66.30955416 71.24540329 66.37278748 C46.28882926 66.89396278 21.39093157 67.51651402 -3.49061966 69.6436615 C-4.31643036 69.71130203 -5.14224106 69.77894257 -5.99307632 69.84863281 C-7.46647337 69.97185886 -8.93905544 70.10564998 -10.41016006 70.25375366 C-14.34396689 70.58962277 -17.20821311 70.4264511 -20.66664505 68.43345642 C-20.99664505 67.44345642 -21.32664505 66.45345642 -21.66664505 65.43345642 C-19.3033695 65.31094976 -16.94008702 65.18857911 -14.5768013 65.06626892 C-13.82507141 65.02729996 -13.07334152 64.98833099 -12.29883194 64.94818115 C-7.97433593 64.72447145 -3.64971123 64.50372071 0.67515182 64.28721619 C12.3958436 63.70073701 12.3958436 63.70073701 24.11155319 63.02375793 C61.79777215 60.70199677 99.5887416 60.7731074 137.33335495 60.43345642 C128.02013078 51.10965997 118.45827549 43.44620598 107.33335495 36.43345642 C106.40136276 35.8430658 105.46937057 35.25267517 104.5091362 34.64439392 C102.45710243 33.2713535 102.45710243 33.2713535 100.33335495 33.43345642 C100.33335495 34.75345642 100.33335495 36.07345642 100.33335495 37.43345642 C32.02062719 40.40451517 -36.30047948 40.82722216 -104.66664505 41.43345642 C-104.66664505 40.44345642 -104.66664505 39.45345642 -104.66664505 38.43345642 C-103.78622543 38.41101868 -102.90580582 38.38858093 -101.99870682 38.36546326 C-84.27764046 37.90791014 -66.560618 37.38806042 -48.84633255 36.71470642 C-48.01671257 36.68318481 -47.18709259 36.65166321 -46.33233261 36.6191864 C-40.40200411 36.39316484 -34.47181675 36.16354901 -28.54164505 35.93345642 C5.62128409 34.60995114 39.77381337 33.46952794 73.95835495 32.87095642 C76.35679562 32.82751113 78.75523313 32.78389143 81.15366745 32.74009705 C86.8801956 32.63589618 92.60675725 32.53375886 98.33335495 32.43345642 C45.65415332 -7.96945718 -64.47474478 11.19206072 -125.38539505 16.96470642 Z M-65.66664505 113.43345642 C-65.66220383 114.22318848 -65.6577626 115.01292053 -65.6531868 115.82658386 C-65.61246386 123.41138466 -65.58234202 130.99612966 -65.56302071 138.58101273 C-65.55275243 142.47686316 -65.53892064 146.37262051 -65.51576614 150.26841736 C-65.40618838 169.19639312 -65.77206846 187.88277824 -67.48503494 206.74931335 C-67.68138888 209.65136577 -67.69624571 212.5256502 -67.66664505 215.43345642 C-41.97482539 217.98539555 -10.17327485 215.93868199 11.33335495 199.99595642 C20.56344734 192.18719551 25.97580985 183.56756322 27.33335495 171.43345642 C28.39171567 155.61374884 25.14493249 141.88612745 14.70835495 129.74595642 C1.52987007 115.94455941 -17.2355342 109.57615683 -36.0689888 109.08091736 C-46.37396238 108.9918142 -55.83565036 110.15645819 -65.66664505 113.43345642 Z M19.52085495 209.49595642 C11.79092867 217.3120443 1.7763595 221.37257578 -8.66664505 224.43345642 C-8.66664505 224.76345642 -8.66664505 225.09345642 -8.66664505 225.43345642 C-7.77513245 225.41062088 -6.88361984 225.38778534 -5.96509171 225.36425781 C5.82163433 225.06410325 17.60863153 224.77589289 29.39585495 224.49595642 C30.35973129 224.47305794 31.32360764 224.45015945 32.31669235 224.42656708 C65.65357713 223.63871581 98.98883144 223.13034746 132.33335495 222.80845642 C133.39401798 222.79821064 134.45468102 222.78796486 135.54748535 222.7774086 C148.47603028 222.65337008 161.40464258 222.53856045 174.33335495 222.43345642 C174.99335495 217.81345642 175.65335495 213.19345642 176.33335495 208.43345642 C174.72678024 208.41363708 173.12020554 208.39381775 171.46494675 208.37339783 C163.65015807 208.27487925 155.83548453 208.16877974 148.02085495 208.05845642 C147.29953762 208.04829121 146.57822029 208.03812599 145.83504486 208.02765274 C117.89190316 207.63063361 89.95972034 206.95635639 62.02524567 206.16224766 C59.66829202 206.09527271 57.31132553 206.02876483 54.95435715 205.96231079 C52.07902831 205.88120911 49.20377918 205.79784619 46.32856369 205.71282959 C42.66365587 205.6081535 38.99881614 205.51626103 35.33335495 205.43345642 C34.24938934 205.40534378 33.16542374 205.37723114 32.04861069 205.3482666 C31.06201965 205.33255112 30.07542862 205.31683563 29.05894089 205.30064392 C28.206931 205.28428894 27.35492111 205.26793396 26.47709274 205.25108337 C23.12396104 205.53634254 21.68343621 207.01911861 19.52085495 209.49595642 Z " fill="#1C1C1A" transform="translate(274.6666450500488,-0.4334564208984375)"/>
<path d="M0 0 C77.71052018 -0.47540909 155.25458553 1.67763453 255.578125 9.16796875 C256.44105164 9.2376033 257.30397827 9.30723785 258.1930542 9.37898254 C262.82672306 9.76772194 267.40390264 10.29270055 272 11 C272.33 12.32 272.66 13.64 273 15 C269.80497772 16.89909675 267.66644408 17.19716042 263.97929382 16.9637146 C262.96380463 16.90493952 261.94831543 16.84616444 260.90205383 16.78560829 C259.7905748 16.70988783 258.67909576 16.63416737 257.53393555 16.55615234 C256.35464478 16.48476736 255.175354 16.41338238 253.96032715 16.33983421 C250.70344409 16.14069592 247.44736467 15.93168866 244.19136024 15.71875286 C240.72224037 15.49450332 237.2523095 15.28362134 233.78242493 15.07159424 C227.84323797 14.7071992 221.90452361 14.3358397 215.96606445 13.95977783 C201.2570252 13.02908575 186.54549166 12.13896769 171.83389139 11.24982595 C169.50629815 11.10904715 167.17872832 10.96788632 164.85116196 10.82666397 C138.24342443 9.2137866 111.63115648 7.79694583 85 6.625 C84.12801216 6.58645149 83.25602432 6.54790298 82.35761261 6.50818634 C72.70340804 6.08187519 63.04870156 5.66854582 53.39343262 5.26709557 C46.02361449 4.96044237 38.65438821 4.64072443 31.28515625 4.3203125 C20.85724729 3.86841155 10.42895865 3.42698241 0 3 C0 2.01 0 1.02 0 0 Z " fill="#1D1D1B" transform="translate(151,240)"/>
<path d="M0 0 C0.5625 1.9375 0.5625 1.9375 1 4 C-1.17102643 6.17102643 -5.80132735 5.70954778 -8.8125 6 C-9.59431641 6.0825 -10.37613281 6.165 -11.18164062 6.25 C-29.00661345 8.01457581 -46.85536054 8.13575938 -64.75 8.0625 C-66.92317603 8.05746725 -69.09635322 8.05290753 -71.26953125 8.04882812 C-76.51305004 8.03798091 -81.75651171 8.02081766 -87 8 C-87 6.68 -87 5.36 -87 4 C-22.94719746 -0.13907392 -22.94719746 -0.13907392 0 0 Z " fill="#1C1C1A" transform="translate(451,173)"/>
<path d="M0 0 C0.495 1.98 0.495 1.98 1 4 C-1.79323546 5.39661773 -4.21561321 5.24575004 -7.33886719 5.37304688 C-7.98966751 5.40084732 -8.64046783 5.42864777 -9.31098938 5.45729065 C-11.4727986 5.54864276 -13.63481269 5.63361706 -15.796875 5.71875 C-17.30749385 5.78172983 -18.81809347 5.84517275 -20.32867432 5.90905762 C-24.3213192 6.07693449 -28.31415485 6.239703 -32.30706787 6.40106201 C-38.65460195 6.65813516 -45.00186262 6.9217312 -51.34903717 7.18751526 C-53.54761679 7.27868893 -55.74629682 7.36700356 -57.94500732 7.45495605 C-65.62191369 7.76878462 -73.27938978 8.19508634 -80.94000244 8.80041504 C-85.29652644 9.0845645 -89.63677983 9.09048152 -94 9 C-93.67 8.01 -93.34 7.02 -93 6 C-83.34308479 4.58979684 -73.67805803 3.25584474 -64 2 C-63.0198291 1.87270508 -62.0396582 1.74541016 -61.02978516 1.61425781 C-40.80648536 -0.8813356 -20.33593995 -0.18990534 0 0 Z " fill="#1D1D1B" transform="translate(193,377)"/>
<path d="M0 0 C0 0.99 0 1.98 0 3 C-7.39520779 5.19779787 -14.65311905 6.7710358 -22.3125 7.6875 C-23.36775879 7.81415039 -24.42301758 7.94080078 -25.51025391 8.07128906 C-42.51857997 9.90481775 -60.0018519 9.86888358 -77 8 C-77 7.01 -77 6.02 -77 5 C-75.95996826 4.95512451 -74.91993652 4.91024902 -73.84838867 4.86401367 C-46.6596284 3.68470907 -46.6596284 3.68470907 -19.59057617 0.96557617 C-13.01867601 0.12868282 -6.62445547 -0.16066171 0 0 Z " fill="#1C1C1A" transform="translate(190,451)"/>
</svg>
